<svg width="1456" height="716" viewBox="0 0 1456 716" fill="none" xmlns="http://www.w3.org/2000/svg">
<g filter="url(#filter0_d_5433_121)">
<rect x="8" y="6" width="1440" height="700" fill="white"/>
</g>
<path d="M278 443.496V268H344.716C385.347 268 408.923 285.048 408.923 314.381C408.923 336.443 395.881 348.979 375.816 353.241C399.142 356.249 415.194 368.534 415.194 393.605C415.194 424.191 391.116 443.496 347.976 443.496H278ZM345.719 297.584H315.622V340.204H345.719C361.771 340.204 371.302 331.931 371.302 318.894C371.302 305.857 362.022 297.584 345.719 297.584ZM348.227 369.286H315.622V413.661H348.227C366.285 413.661 376.569 405.388 376.569 391.85C376.569 377.559 366.035 369.286 348.227 369.286Z" fill="#222222"/>
<path d="M496.971 445C454.082 445 428.249 419.177 428.249 379.314C428.249 339.201 454.584 313.127 494.463 313.127C533.088 313.127 559.172 337.195 559.674 375.052C559.674 378.813 559.423 383.075 558.67 387.086H465.118V388.841C465.87 407.143 477.658 418.174 495.466 418.174C509.762 418.174 519.795 411.907 522.804 399.873H557.667C553.654 424.943 531.332 445 496.971 445ZM465.87 364.021H524.058C521.55 348.227 510.765 339.452 494.714 339.452C479.414 339.452 467.877 348.728 465.87 364.021Z" fill="#222222"/>
<path d="M561.694 288.057V268H697.382V288.057H640.448V443.496H618.628V288.057H561.694Z" fill="#222222"/>
<path d="M800.926 424.693H807.447V443.496H796.161C779.106 443.496 773.337 436.225 773.086 423.69C765.06 435.222 752.269 445 730.198 445C702.107 445 683.045 430.96 683.045 407.644C683.045 382.072 700.853 367.782 734.461 367.782H772.083V359.007C772.083 342.46 760.295 332.432 740.23 332.432C722.172 332.432 710.133 340.956 707.625 353.993H687.058C690.068 328.922 710.383 314.13 741.233 314.13C773.839 314.13 792.649 330.426 792.649 360.261V416.169C792.649 422.938 795.158 424.693 800.926 424.693ZM772.083 391.348V385.081H732.455C714.146 385.081 703.862 391.85 703.862 406.391C703.862 418.926 714.647 427.45 731.702 427.45C757.285 427.45 772.083 412.659 772.083 391.348Z" fill="#222222"/>
<path d="M813.226 443.496V268H833.792V443.496H813.226Z" fill="#222222"/>
<path d="M910.875 445C872.501 445 847.42 418.676 847.42 379.565C847.42 340.705 872 314.13 908.116 314.13C944.233 314.13 967.809 336.945 968.813 374.802C968.813 377.559 968.562 380.568 968.311 383.576H868.99V385.331C869.742 409.65 885.042 426.698 909.37 426.698C927.429 426.698 941.474 417.171 945.738 400.625H966.555C961.539 426.197 940.471 445 910.875 445ZM870.244 366.528H946.741C944.735 344.466 929.686 332.181 908.367 332.181C889.556 332.181 872.25 345.72 870.244 366.528Z" fill="#222222"/>
<path d="M1044.95 314.13C1073.79 314.13 1096.62 329.925 1096.62 372.295V443.496H1076.05V373.548C1076.05 346.973 1063.76 332.933 1041.44 332.933C1017.36 332.933 1002.82 350.734 1002.82 379.565V443.496H982.249V315.635H1000.06L1002.82 332.933C1010.34 323.156 1023.38 314.13 1044.95 314.13Z" fill="#222222"/>
<path d="M1122.34 410.152V334.438H1099.26V315.635H1122.34V279.783H1142.9V315.635H1176.01V334.438H1142.9V409.901C1142.9 420.681 1146.67 424.693 1157.7 424.693H1178.02V443.496H1155.7C1131.12 443.496 1122.34 432.715 1122.34 410.152Z" fill="#222222"/>
<defs>
<filter id="filter0_d_5433_121" x="0" y="0" width="1456" height="716" filterUnits="userSpaceOnUse" color-interpolation-filters="sRGB">
<feFlood flood-opacity="0" result="BackgroundImageFix"/>
<feColorMatrix in="SourceAlpha" type="matrix" values="0 0 0 0 0 0 0 0 0 0 0 0 0 0 0 0 0 0 127 0" result="hardAlpha"/>
<feOffset dy="2"/>
<feGaussianBlur stdDeviation="4"/>
<feColorMatrix type="matrix" values="0 0 0 0 0 0 0 0 0 0 0 0 0 0 0 0 0 0 0.2 0"/>
<feBlend mode="normal" in2="BackgroundImageFix" result="effect1_dropShadow_5433_121"/>
<feBlend mode="normal" in="SourceGraphic" in2="effect1_dropShadow_5433_121" result="shape"/>
</filter>
</defs>
</svg>
